<svg style="position: absolute; width: 0; height: 0; overflow: hidden;" version="1.1" xmlns="http://www.w3.org/2000/svg" xmlns:xlink="http://www.w3.org/1999/xlink">
<defs>
<symbol id="icon-rca" viewBox="0 0 250.39999 491.63751">
<path d="M222.514 48.331c1.743 4.07 2.907 8.722 1.743 13.374-55.242 92.459-64.71 204.538-66.185 224.734-3.75 86.25 6.042 158.959 7.454 190.458.254 7.876-1.164 10.469-1.164 10.469-13.79-171.343-7.123-228.635-8.373-201.968-1.25 26.666-2.769-105.16 66.525-237.067" fill="#007f55"/><path d="M222.514 48.331c1.743 4.07 2.907 8.722 1.743 13.374-55.242 92.459-64.71 204.538-66.185 224.734-3.75 86.25 6.042 158.959 7.454 190.458.254 7.876-1.164 10.469-1.164 10.469-13.79-171.343-7.123-228.635-8.373-201.968-1.25 26.666-2.769-105.16 66.525-237.067z" fill="none" stroke="#007f55" stroke-width="2.5"/><path d="M1.272 101.619c.303-7.62.682-11.115 1.043-16.16C97.774 178.08 134.124 238.298 138.892 316.39c2.208 51.152-7.338 79.791-4.17 129.28-.115 2.307-.026 5.436-.92 4.989-4.29-19.645 6.258-96.148 3.006-133.226-2.534-28.883-13.7-104.47-135.536-215.814" fill="#007f55"/><path d="M1.272 101.619c.303-7.62.682-11.115 1.043-16.16C97.774 178.08 134.124 238.298 138.892 316.39c2.208 51.152-7.338 79.791-4.17 129.28-.115 2.307-.026 5.436-.92 4.989-4.29-19.645 6.258-96.148 3.006-133.226-2.534-28.883-13.7-104.47-135.536-215.814z" fill="none" stroke="#007f55" stroke-width="2.5"/><path d="M193.716 457.741h9.329V-.004h-9.329v457.745z" fill="#007f55"/><path d="M146.365 92.549h104.032v-9.327H146.365v9.327zM159.209 155.536c0 17.625-15.033 31.913-33.578 31.913-18.544 0-33.579-14.288-33.579-31.913 0-17.627 15.035-31.916 33.58-31.916 18.544 0 33.577 14.289 33.577 31.916" fill="#007f55"/><path d="M159.209 155.536c0 17.625-15.033 31.913-33.578 31.913-18.544 0-33.579-14.288-33.579-31.913 0-17.627 15.035-31.916 33.58-31.916 18.544 0 33.577 14.289 33.577 31.916z" fill="none" stroke="#007f55" stroke-width="2.5"/><path d="M212.864 450.398h.869c.988 0 1.83-.362 1.83-1.292 0-.659-.48-1.319-1.83-1.319-.39 0-.66.03-.87.06v2.55zm0 4.17h-1.201v-7.532c.63-.088 1.23-.178 2.13-.178 1.14 0 1.89.24 2.34.568.45.33.69.84.69 1.56 0 .991-.66 1.59-1.47 1.832v.058c.66.123 1.11.72 1.26 1.831.18 1.17.36 1.62.48 1.86h-1.26c-.182-.24-.36-.93-.51-1.92-.18-.96-.66-1.32-1.62-1.32h-.84v3.24zm1.26-9.632c-2.971 0-5.4 2.552-5.4 5.701 0 3.21 2.429 5.73 5.429 5.73 3 .03 5.4-2.52 5.4-5.7s-2.4-5.73-5.4-5.73h-.03zm.029-1.05c3.688 0 6.63 3.001 6.63 6.751 0 3.811-2.942 6.78-6.66 6.78-3.69 0-6.692-2.969-6.692-6.78 0-3.75 3.001-6.751 6.693-6.751h.029" fill="#007f55"/>
</symbol>
</defs>
</svg>
