<svg xmlns="http://www.w3.org/2000/svg" width="215.344" height="101.964" viewBox="0 0 56.976547 26.978033"><g transform="translate(-19.053 -136.23)"><rect width="55.124" height="25.126" x="19.979" y="137.157" ry="11.769" fill="#edfb11" stroke="#327399" stroke-width="1.852" stroke-linecap="round"/><g style="line-height:125%" font-weight="400" font-size="9.937" font-family="Libre Franklin" letter-spacing="0" word-spacing="0" stroke-width=".248" fill="#352543"><path d="M27.836 146.033q.984 0 1.56.01 2.008.03 2.932.934.934.905.934 2.703 0 3.727-3.965 3.727h-1.46q-.14 0-.14-.16v-7.085q0-.07.03-.099.03-.03.11-.03zm.895.726q-.08 0-.08.139v5.684q0 .06.02.09.03.02.1.02h.377q1.113 0 1.789-.289.686-.298 1.004-.954.328-.656.328-1.749t-.309-1.72q-.308-.635-.944-.903-.626-.279-1.669-.308-.199-.01-.616-.01zM37.71 153.506q-.973 0-1.689-.437-.705-.437-1.083-1.282-.377-.845-.377-2.037 0-1.203.377-2.057.388-.865 1.093-1.312.716-.447 1.69-.447.964 0 1.67.447.715.447 1.092 1.302.378.854.378 2.057 0 1.192-.378 2.037-.377.845-1.093 1.292-.705.437-1.68.437zm.02-.725q1.074 0 1.6-.746.537-.745.537-2.285 0-1.57-.546-2.326-.537-.765-1.6-.765-1.083 0-1.63.765-.537.766-.537 2.326 0 1.54.537 2.285.547.746 1.64.746zM47.953 146.033q.06 0 .08.03.03.02.03.09v7.134q0 .12-.13.12h-.487q-.08 0-.129-.01-.04-.02-.08-.07l-3.835-5.575q-.04-.07-.08-.06-.03.01-.03.07v5.515q0 .13-.139.13h-.556q-.13 0-.13-.13v-7.105q0-.08.02-.11.03-.029.11-.029h.566q.08 0 .12.02.04.02.089.08l3.726 5.455q.05.06.09.06.06 0 .06-.09v-5.406q0-.119.119-.119zM49.58 153.407q-.059 0-.089-.04-.03-.05 0-.13l2.574-7.065q.03-.08.07-.109.04-.03.129-.03h.775q.189 0 .229.15l2.544 7.055.01.05q0 .119-.11.119h-.705q-.12 0-.16-.1l-.685-1.927q-.02-.04-.04-.06-.02-.02-.08-.02h-2.891q-.09 0-.12.08l-.705 1.937q-.03.09-.149.09zm4.204-2.862q.11 0 .08-.13l-1.193-3.269q-.03-.09-.07-.09-.039 0-.069.09l-1.212 3.29-.02.059q0 .05.08.05zM55.624 146.142q0-.109.119-.109h5.346q.12 0 .12.11v.516q0 .06-.03.08-.03.02-.09.02h-2.017q-.06 0-.09.02-.02.02-.02.079v6.42q0 .129-.119.129h-.715q-.12 0-.12-.13v-6.409q0-.07-.02-.09-.02-.02-.079-.02h-2.166q-.06 0-.09-.02t-.03-.079zM62.575 146.172q0-.08.02-.109.03-.03.1-.03h4.461q.1 0 .1.11v.506q0 .12-.13.12h-3.468q-.08 0-.109.03-.02.02-.02.089v2.325q0 .11.11.11h2.573q.11 0 .11.109v.526q0 .09-.11.09h-2.574q-.109 0-.109.11v2.414q0 .06.02.08.02.02.08.02h3.647q.06 0 .079.02.03.02.03.079v.526q0 .11-.11.11h-4.56q-.08 0-.11-.03t-.03-.11z" style="-inkscape-font-specification:'Libre Franklin'"/></g></g></svg>